<svg width="240" height="64" viewBox="0 0 240 64" fill="none" xmlns="http://www.w3.org/2000/svg">
<path d="M27.1753 35.46L27.1493 38.84C27.1493 38.996 27.2013 39.1347 27.3053 39.256C27.4093 39.36 27.548 39.412 27.7213 39.412C28.7787 39.412 29.6453 39.204 30.3213 38.788C31.0147 38.372 31.3613 37.722 31.3613 36.838C31.3613 35.9367 31.006 35.3127 30.2953 34.966C29.7233 34.6887 29.0993 34.55 28.4233 34.55C28.25 34.55 28.0767 34.5587 27.9033 34.576C27.418 34.6107 27.1753 34.9053 27.1753 35.46ZM27.1493 28.31L27.1753 30.442C27.1753 30.7713 27.3747 30.936 27.7733 30.936C29.524 30.936 30.3993 30.442 30.3993 29.454C30.3993 28.31 29.6193 27.738 28.0593 27.738C27.9553 27.738 27.86 27.738 27.7733 27.738C27.3573 27.738 27.1493 27.9287 27.1493 28.31ZM18.6473 24.826C20.7967 24.7567 23.4833 24.722 26.7073 24.722C29.9313 24.722 32.1587 24.7567 33.3893 24.826C34.6373 24.878 35.738 25.3547 36.6913 26.256C37.6447 27.1573 38.1213 28.1973 38.1213 29.376C38.1213 30.8147 37.4973 31.872 36.2493 32.548C36.128 32.6173 36.0673 32.704 36.0673 32.808C36.0673 32.8947 36.128 32.9553 36.2493 32.99C37.1507 33.2327 37.9047 33.7527 38.5113 34.55C39.1353 35.3473 39.4473 36.292 39.4473 37.384C39.4473 38.7533 38.9187 39.9927 37.8613 41.102C36.804 42.2113 35.1833 42.818 32.9993 42.922C30.8153 43.0087 29.238 43.052 28.2673 43.052C27.2967 43.052 24.0553 43.026 18.5433 42.974C18.0407 42.974 17.6333 42.818 17.3213 42.506C17.0093 42.1767 16.8273 41.804 16.7753 41.388C16.6367 39.8627 16.5673 37.644 16.5673 34.732C16.5673 31.8027 16.628 29.3067 16.7493 27.244C16.8013 26.3947 16.9487 25.788 17.1913 25.424C17.434 25.0427 17.9193 24.8433 18.6473 24.826ZM52.0738 27.53L52.0218 29.896V34.914C52.0218 35.642 52.2471 36.2053 52.6978 36.604C53.1484 37.0027 53.6771 37.202 54.2838 37.202C54.8904 37.202 55.4104 37.0027 55.8438 36.604C56.2944 36.2053 56.5198 35.642 56.5198 34.914V27.166C56.5198 26.3513 56.6238 25.7533 56.8318 25.372C57.0571 24.9907 57.5338 24.8 58.2618 24.8H60.6538C61.2084 24.8 61.5898 24.9647 61.7978 25.294C62.1964 25.8833 62.3958 28.1627 62.3958 32.132C62.3958 33.432 62.3784 34.4287 62.3438 35.122C62.2918 36.526 61.9624 37.7827 61.3558 38.892C60.7664 39.984 60.0038 40.8593 59.0678 41.518C57.1784 42.8527 55.0378 43.52 52.6458 43.52C49.4911 43.52 46.8824 42.7833 44.8198 41.31C43.7798 40.5647 42.9564 39.5767 42.3498 38.346C41.7604 37.098 41.4571 35.6507 41.4398 34.004C41.4224 33.1893 41.4138 31.9933 41.4138 30.416C41.4138 28.8213 41.4311 27.6773 41.4658 26.984C41.5178 26.2733 41.6564 25.736 41.8818 25.372C42.1244 24.9907 42.6011 24.8 43.3118 24.8H50.2538C50.9471 24.8 51.4064 24.982 51.6318 25.346C51.9264 25.814 52.0738 26.542 52.0738 27.53ZM75.7017 30.234L75.7537 35.044C75.7537 35.3733 75.9357 35.538 76.2997 35.538C77.3744 35.538 78.215 35.2433 78.8217 34.654C79.4457 34.0473 79.7577 33.3367 79.7577 32.522C79.7577 31.7073 79.463 31.0053 78.8737 30.416C78.3017 29.8267 77.4524 29.532 76.3257 29.532C75.9097 29.532 75.7017 29.766 75.7017 30.234ZM82.5137 38.008C82.843 38.3547 84.013 39.6633 86.0237 41.934C86.145 42.09 86.2057 42.2287 86.2057 42.35C86.2057 42.8007 86.0064 43.026 85.6077 43.026C84.689 43.0433 83.7617 43.052 82.8257 43.052C81.907 43.052 80.9884 43.0433 80.0697 43.026C79.567 43.026 79.1077 42.8267 78.6917 42.428L76.4557 39.048C76.369 38.944 76.265 38.8747 76.1437 38.84C75.8664 38.736 75.7277 38.8487 75.7277 39.178V41.83C75.7277 42.5753 75.2337 42.974 74.2457 43.026C73.275 43.078 72.209 43.104 71.0477 43.104C69.8864 43.104 68.4824 43.0607 66.8357 42.974C66.333 42.9393 65.9257 42.766 65.6137 42.454C65.319 42.142 65.1457 41.7867 65.0937 41.388C64.955 39.8627 64.8857 37.4707 64.8857 34.212C64.8857 30.936 64.9377 28.5527 65.0417 27.062C65.1457 25.5713 65.8997 24.8173 67.3037 24.8C68.621 24.7827 70.415 24.774 72.6857 24.774C74.9564 24.774 76.837 24.7913 78.3277 24.826C80.477 24.8607 82.2364 25.658 83.6057 27.218C84.975 28.778 85.6597 30.5373 85.6597 32.496C85.6597 33.64 85.391 34.6973 84.8537 35.668C84.3337 36.6387 83.5537 37.4187 82.5137 38.008ZM106.409 24.8H109.191C109.78 24.8 110.187 24.8953 110.413 25.086C110.655 25.2767 110.785 25.6667 110.803 26.256C110.907 28.8907 110.959 31.7247 110.959 34.758C110.959 37.7913 110.898 40.01 110.777 41.414C110.742 41.8127 110.586 42.1767 110.309 42.506C110.049 42.8353 109.702 43 109.269 43H104.927C104.32 43 103.653 42.7833 102.925 42.35C98.9034 39.9753 96.3727 38.528 95.3327 38.008C95.1247 37.9213 94.9514 37.956 94.8127 38.112C94.6914 38.2507 94.6307 38.5193 94.6307 38.918V41.804C94.6307 42.1333 94.5094 42.3933 94.2667 42.584C93.9027 42.8787 92.9667 43.026 91.4587 43.026C91.0427 43.026 90.6354 43.0173 90.2367 43C89.838 42.9653 89.5087 42.7833 89.2487 42.454C89.006 42.1247 88.876 41.7693 88.8587 41.388C88.8067 39.308 88.7807 36.6993 88.7807 33.562C88.7807 30.4073 88.7894 28.3533 88.8067 27.4C88.824 26.4467 88.9367 25.7793 89.1447 25.398C89.3527 24.9993 89.7514 24.8 90.3407 24.8H93.2007C93.79 24.8 94.3967 24.9647 95.0207 25.294C100.394 28.0847 103.531 29.7053 104.433 30.156C104.727 30.2947 104.961 30.312 105.135 30.208C105.308 30.104 105.395 29.9133 105.395 29.636V25.996C105.395 25.6493 105.481 25.3633 105.655 25.138C105.845 24.9127 106.097 24.8 106.409 24.8ZM125.827 42.948C124.665 43.052 123.001 43.104 120.835 43.104C118.668 43.104 117.186 43.0693 116.389 43C115.609 42.948 115.019 42.8093 114.621 42.584C114.222 42.3587 114.005 42.0033 113.971 41.518C113.867 39.646 113.815 37.514 113.815 35.122C113.815 32.7127 113.849 30.1647 113.919 27.478C113.953 25.814 114.725 24.93 116.233 24.826C117.29 24.7567 118.911 24.722 121.095 24.722C123.279 24.722 124.986 24.7567 126.217 24.826C127.465 24.878 128.661 25.164 129.805 25.684C130.966 26.1867 131.893 26.8453 132.587 27.66C134.025 29.3413 134.745 31.2913 134.745 33.51C134.745 35.85 133.991 37.9387 132.483 39.776C131.755 40.66 130.81 41.388 129.649 41.96C128.505 42.532 127.231 42.8613 125.827 42.948ZM124.657 30.416V36.708C124.657 36.8467 124.709 36.9767 124.813 37.098C124.917 37.2193 125.055 37.28 125.229 37.28C126.338 37.28 127.187 36.8987 127.777 36.136C128.383 35.3733 128.687 34.472 128.687 33.432C128.687 32.392 128.409 31.4907 127.855 30.728C127.317 29.948 126.589 29.558 125.671 29.558C125.445 29.558 125.272 29.5667 125.151 29.584C124.821 29.6707 124.657 29.948 124.657 30.416ZM149.809 43.52C147.712 43.52 145.814 43.2513 144.115 42.714C142.417 42.1593 141.039 41.4227 139.981 40.504C138.924 39.5853 138.118 38.5627 137.563 37.436C137.009 36.292 136.731 35.1047 136.731 33.874C136.731 32.6433 137.009 31.4647 137.563 30.338C138.135 29.194 138.941 28.1627 139.981 27.244C141.039 26.3253 142.417 25.5887 144.115 25.034C145.814 24.4793 147.677 24.202 149.705 24.202C151.733 24.202 153.527 24.4533 155.087 24.956C156.647 25.4587 157.904 26.1433 158.857 27.01C160.799 28.778 161.769 30.8753 161.769 33.302C161.769 34.5327 161.501 35.7373 160.963 36.916C160.443 38.0947 159.689 39.1693 158.701 40.14C157.731 41.0933 156.474 41.882 154.931 42.506C153.389 43.1127 151.681 43.4507 149.809 43.52ZM154.957 33.432C154.957 32.6 154.663 31.8807 154.073 31.274C153.484 30.65 152.583 30.338 151.369 30.338C150.173 30.338 149.22 30.6587 148.509 31.3C147.799 31.9413 147.443 32.7213 147.443 33.64C147.443 34.5587 147.816 35.2953 148.561 35.85C149.307 36.4047 150.199 36.682 151.239 36.682C152.297 36.682 153.181 36.344 153.891 35.668C154.602 34.992 154.957 34.2467 154.957 33.432ZM183.167 26.178L186.781 26.23C187.318 26.23 187.734 26.334 188.029 26.542C188.323 26.75 188.54 27.0967 188.679 27.582L190.265 32.834C190.299 32.9727 190.36 33.068 190.447 33.12C190.533 33.172 190.62 33.172 190.707 33.12C190.793 33.068 190.854 32.9813 190.889 32.86L193.073 25.788C193.177 25.4413 193.333 25.1987 193.541 25.06C193.766 24.9213 194.113 24.852 194.581 24.852H197.519C197.848 24.852 198.082 25.008 198.221 25.32C198.29 25.4587 198.325 25.6147 198.325 25.788C198.325 25.9613 198.16 26.4553 197.831 27.27C197.519 28.0673 196.808 30.1733 195.699 33.588C194.589 37.0027 193.627 39.594 192.813 41.362C192.119 42.818 190.776 43.546 188.783 43.546C187.708 43.546 186.694 43.3033 185.741 42.818C184.787 42.3153 184.146 41.7 183.817 40.972C183.505 40.2267 183.08 39.1433 182.543 37.722C182.023 36.3007 181.659 35.3127 181.451 34.758C180.549 37.6007 179.743 39.7933 179.033 41.336C178.703 42.0293 178.097 42.5667 177.213 42.948C176.346 43.3293 175.384 43.52 174.327 43.52C171.796 43.52 170.115 42.584 169.283 40.712C166.631 34.68 164.828 30.2513 163.875 27.426C163.736 26.9753 163.667 26.594 163.667 26.282C163.667 25.3113 164.126 24.826 165.045 24.826L172.481 24.748C173.122 24.748 173.599 24.8607 173.911 25.086C174.223 25.3113 174.474 25.7447 174.665 26.386L176.485 32.782C176.519 32.938 176.58 33.042 176.667 33.094C176.857 33.198 177.005 33.1027 177.109 32.808L178.851 27.504C179.111 26.672 179.648 26.2473 180.463 26.23C181.537 26.1953 182.439 26.178 183.167 26.178ZM218.991 24.8H221.773C222.362 24.8 222.769 24.8953 222.995 25.086C223.237 25.2767 223.367 25.6667 223.385 26.256C223.489 28.8907 223.541 31.7247 223.541 34.758C223.541 37.7913 223.48 40.01 223.359 41.414C223.324 41.8127 223.168 42.1767 222.891 42.506C222.631 42.8353 222.284 43 221.851 43H217.509C216.902 43 216.235 42.7833 215.507 42.35C211.485 39.9753 208.955 38.528 207.915 38.008C207.707 37.9213 207.533 37.956 207.395 38.112C207.273 38.2507 207.213 38.5193 207.213 38.918V41.804C207.213 42.1333 207.091 42.3933 206.849 42.584C206.485 42.8787 205.549 43.026 204.041 43.026C203.625 43.026 203.217 43.0173 202.819 43C202.42 42.9653 202.091 42.7833 201.831 42.454C201.588 42.1247 201.458 41.7693 201.441 41.388C201.389 39.308 201.363 36.6993 201.363 33.562C201.363 30.4073 201.371 28.3533 201.389 27.4C201.406 26.4467 201.519 25.7793 201.727 25.398C201.935 24.9993 202.333 24.8 202.923 24.8H205.783C206.372 24.8 206.979 24.9647 207.603 25.294C212.976 28.0847 216.113 29.7053 217.015 30.156C217.309 30.2947 217.543 30.312 217.717 30.208C217.89 30.104 217.977 29.9133 217.977 29.636V25.996C217.977 25.6493 218.063 25.3633 218.237 25.138C218.427 24.9127 218.679 24.8 218.991 24.8Z" fill="#E5261F"/>
</svg>
